<svg xmlns="http://www.w3.org/2000/svg" xmlns:xlink="http://www.w3.org/1999/xlink" version="1.1" x="0px" y="0px" viewBox="0 0 100 100" enable-background="new 0 0 100 100" xml:space="preserve"><rect fill="none" width="100" height="100"></rect><g><g><g><path d="M74.971,93.023L74.971,93.023c-1.034,0-2.131-0.305-3.259-0.895l-17.654-9.285c-2.048-1.077-6.068-1.077-8.111,0     l-17.652,9.285c-2.645,1.401-5.261,1.086-6.74-0.669c-0.718-0.85-1.482-2.403-1.041-4.979l3.366-19.662     c0.424-2.403-0.743-6.002-2.497-7.717L7.095,45.18c-1.794-1.745-2.482-3.81-1.884-5.653c0.601-1.853,2.37-3.116,4.859-3.485     l19.739-2.866c2.412-0.358,5.479-2.581,6.555-4.768l8.829-17.893c1.118-2.251,2.864-3.539,4.805-3.539s3.696,1.288,4.811,3.534     l8.835,17.897c1.052,2.148,4.179,4.419,6.553,4.768l19.736,2.861c2.492,0.374,4.259,1.637,4.856,3.485     c0.6,1.843-0.084,3.913-1.878,5.658L78.626,59.106c-1.75,1.7-2.92,5.304-2.508,7.712l3.377,19.662     c0.438,2.581-0.329,4.13-1.042,4.984C77.604,92.468,76.364,93.023,74.971,93.023z M49.997,77.077     c2.367,0,4.621,0.502,6.349,1.411l17.657,9.29c0.302,0.157,0.538,0.236,0.695,0.28c0.012-0.172,0.002-0.423-0.055-0.752     l-3.372-19.657c-0.683-3.972,1.037-9.271,3.923-12.072l14.28-13.921c0.23-0.221,0.383-0.418,0.481-0.561     c-0.167-0.063-0.405-0.137-0.735-0.187l-19.738-2.866c-3.986-0.585-8.486-3.859-10.254-7.462l-8.835-17.883     c-0.145-0.295-0.287-0.501-0.396-0.634c-0.108,0.133-0.244,0.344-0.391,0.634l-8.826,17.888     c-1.777,3.603-6.285,6.877-10.263,7.457l-19.735,2.866c-0.327,0.049-0.566,0.123-0.731,0.187     c0.097,0.143,0.248,0.334,0.481,0.561l14.287,13.926c2.886,2.821,4.603,8.12,3.911,12.072l-3.365,19.657     c-0.058,0.324-0.063,0.575-0.055,0.747c0.165-0.044,0.393-0.128,0.695-0.28l17.646-9.29     C45.384,77.579,47.642,77.077,49.997,77.077z"></path></g></g><g><g><path d="M74.971,93.023L74.971,93.023c-1.034,0-2.131-0.305-3.259-0.895l-17.654-9.285c-2.048-1.077-6.068-1.077-8.111,0     l-17.652,9.285c-2.645,1.401-5.261,1.086-6.74-0.669c-0.718-0.85-1.482-2.403-1.041-4.979l3.366-19.662     c0.424-2.403-0.743-6.002-2.497-7.717L7.095,45.18c-1.794-1.745-2.482-3.81-1.884-5.653c0.601-1.853,2.37-3.116,4.859-3.485     l19.739-2.866c2.412-0.358,5.479-2.581,6.555-4.768l8.829-17.893c1.118-2.251,2.864-3.539,4.805-3.539s3.696,1.288,4.811,3.534     l8.835,17.897c1.052,2.148,4.179,4.419,6.553,4.768l19.736,2.861c2.492,0.374,4.259,1.637,4.856,3.485     c0.6,1.843-0.084,3.913-1.878,5.658L78.626,59.106c-1.75,1.7-2.92,5.304-2.508,7.712l3.377,19.662     c0.438,2.581-0.329,4.13-1.042,4.984C77.604,92.468,76.364,93.023,74.971,93.023z M49.997,77.077     c2.367,0,4.621,0.502,6.349,1.411l17.657,9.29c0.302,0.157,0.538,0.236,0.695,0.28c0.012-0.172,0.002-0.423-0.055-0.752     l-3.372-19.657c-0.683-3.972,1.037-9.271,3.923-12.072l14.28-13.921c0.23-0.221,0.383-0.418,0.481-0.561     c-0.167-0.063-0.405-0.137-0.735-0.187l-19.738-2.866c-3.986-0.585-8.486-3.859-10.254-7.462l-8.835-17.883     c-0.145-0.295-0.287-0.501-0.396-0.634c-0.108,0.133-0.244,0.344-0.391,0.634l-8.826,17.888     c-1.777,3.603-6.285,6.877-10.263,7.457l-19.735,2.866c-0.327,0.049-0.566,0.123-0.731,0.187     c0.097,0.143,0.248,0.334,0.481,0.561l14.287,13.926c2.886,2.821,4.603,8.12,3.911,12.072l-3.365,19.657     c-0.058,0.324-0.063,0.575-0.055,0.747c0.165-0.044,0.393-0.128,0.695-0.28l17.646-9.29     C45.384,77.579,47.642,77.077,49.997,77.077z"></path></g></g></g></svg>