<svg xmlns="http://www.w3.org/2000/svg" xmlns:xlink="http://www.w3.org/1999/xlink" version="1.1" x="0px" y="0px" viewBox="0 0 32 40" enable-background="new 0 0 32 32" xml:space="preserve"><g display="none"><rect x="-102.005" y="-130.5" display="inline" fill="#000000" width="430" height="210.5"/></g><g><g><path d="M13.296,0C6.142,0,0.322,5.987,0.322,13.348s5.82,13.349,12.974,13.349c3.462,0,6.603-1.41,8.932-3.692L30.962,32    l0.717-0.697l-8.765-9.027c2.079-2.368,3.357-5.493,3.357-8.928C26.27,5.987,20.45,0,13.296,0z M13.296,25.696    c-6.603,0-11.974-5.54-11.974-12.349S6.693,1,13.296,1S25.27,6.539,25.27,13.348S19.898,25.696,13.296,25.696z"/></g></g><g display="none"><g display="inline"><path d="M22.708,22.373c-0.005-0.005-0.015-0.009-0.02-0.013c2.238-2.418,3.585-5.664,3.673-9.15    c-0.149-5.866-3.824-11.185-9.593-12.783C12.041-0.882,6.813,0.555,3.475,4.16c-8.42,9.095-0.391,24.175,11.811,22.19    c2.756-0.448,5.136-1.733,6.98-3.55c2.936,3.022,5.872,6.044,8.808,9.067c0.183,0.189,1.128,0.282,0.886,0.032    C28.876,28.723,25.792,25.548,22.708,22.373z M12.594,26.107c-6.656-0.355-11.679-6.4-11.663-12.896    C0.947,6.339,6.556-0.015,13.699,0.366c6.801,0.362,11.499,6.397,11.663,12.896C25.188,20.124,19.863,26.494,12.594,26.107z"/></g></g><g display="none"><g display="inline"><path d="M13.439,0C6.19,0,0.293,6.056,0.293,13.498S6.19,26.996,13.439,26.996c3.328,0,6.362-1.286,8.68-3.386L30.274,32    l1.434-1.395l-8.203-8.44c1.921-2.347,3.082-5.369,3.082-8.667C26.587,6.056,20.689,0,13.439,0z M13.439,24.996    c-6.146,0-11.146-5.158-11.146-11.498S7.293,2,13.439,2s11.147,5.158,11.147,11.498S19.586,24.996,13.439,24.996z"/></g></g><g display="none"><g display="inline"><path d="M13.075,0C6.034,0,0.326,5.877,0.326,13.126c0,7.249,5.708,13.126,12.749,13.126c3.497,0,6.664-1.452,8.967-3.8L31.315,32    l0.359-0.348l-9.296-9.572c2.131-2.346,3.445-5.489,3.445-8.954C25.823,5.877,20.116,0,13.075,0z M13.075,25.752    c-6.754,0-12.249-5.664-12.249-12.626C0.826,6.164,6.321,0.5,13.075,0.5s12.249,5.664,12.249,12.626    C25.323,20.088,19.829,25.752,13.075,25.752z"/></g></g><text x="0" y="47" fill="#000000" font-size="3px" font-weight="bold" font-family="'Helvetica Neue', Helvetica, Arial-Unicode, Arial, Sans-serif">AlfredoCreates.com/icons &amp; Flaticondesign.com</text><text x="0" y="50" fill="#000000" font-size="3px" font-weight="bold" font-family="'Helvetica Neue', Helvetica, Arial-Unicode, Arial, Sans-serif">from the Noun Project</text></svg>